<svg width="1155" height="238" viewBox="0 0 1155 238" fill="none" xmlns="http://www.w3.org/2000/svg">
<path d="M1.10031 237.15C0.900309 237 0.750311 214.05 0.750311 186.15C0.750311 143.45 0.850312 135.5 1.45031 135.5C1.80031 135.5 2.95031 136.5 3.95031 137.75C5.65031 139.8 5.90031 139.95 8.00031 139.8C9.25031 139.75 10.5503 139.4 10.8503 139.1C11.2003 138.75 12.3003 138.5 13.3003 138.5C14.3003 138.5 15.4003 138.2 15.7003 137.8C23.5 80.5 42.75 121.55 43.8 121.4C44.8 121.3 20.9003 162 22.5003 161.1C25.3503 159.45 25.7503 133.25 25.7503 130.95C25.7503 129.35 25.5003 128.5 25.0003 128.3C24.6003 128.15 24.2503 127.6 24.2503 127.1C24.2503 126.55 23.8003 125.55 23.2003 124.8C22.6003 124 22.3003 123.15 22.5003 122.55C22.6503 122 22.3503 120.9 21.7503 119.9C21.2003 119 15.7003 79.4 15.7003 78.7C15.7003 77.15 32.6003 179.05 29.8003 177.75C28.0503 176.95 4.80031 141.95 3.95031 142.7C3.40031 143.2 4.85 146.55 3.3 146.55C1.95 146.55 4.25031 110.3 3.80031 110.7C3.95031 139.8 1.42261 149.9 0.822608 150.05L0.750311 112.05L0.650312 56.25C0.550312 25.55 0.65031 0.299997 0.80031 0.199997C0.95031 0.149997 86.8504 0.0500031 191.65 0.0500031C337.9 0.0500031 382.2 0.200002 382.1 0.650002C382.05 1.05 383.4 1.3 386.75 1.4C389.6 1.45 391.25 1.35 390.8 1.05C390.35 0.750003 390.65 0.549998 391.8 0.349998C392.75 0.199998 564.8 0.149997 774.15 0.199997L1154.8 0.25L1154.75 116.75C1154.75 180.85 1154.75 234.2 1154.75 235.4V237.5H1004.15H853.5L855.45 236.2L857.35 234.9L856.3 233.8C855.7 233.2 832.75 233.9 832.75 233.05C832.7 232.25 877.7 229.2 877.3 228.5C876.9 227.8 853.8 226.75 853.75 226.1C853.75 225 851.75 220.85 850.7 219.8C850.45 219.5 850.25 218.6 850.25 217.75C850.25 216.9 850.7 235.5 850.25 234.9C849.8 234.25 848.75 213.45 848.9 212.85C849.1 212.1 970.3 236.55 969.3 235.4L842.5 237.426L830.8 216.05C830.15 216.65 843.6 210.5 843.2 210.5C842.75 210.5 841.8 211.2 840.95 212.05L839.5 213.55L864.3 223.636C864.9 224.686 840.95 229.75 840.95 230.55C840.95 231.4 836.253 221.464 835.453 224.55C835.903 224.7 845.311 221.94 843.867 222.688C843.867 223.588 843.6 224.9 844 225.7C844.4 226.45 844.75 227.6 844.75 228.2C844.75 229.45 846.3 232.65 847.5 234C847.95 234.5 848.25 235.45 848.15 236.1C848 237.2 847.8 237.25 843.65 237.4C839.95 237.5 839.25 237.4 839.25 236.75C839.25 236.35 838.8 235.75 838.25 235.4C837.7 235.05 837.25 234.3 837.25 233.7C837.25 233.1 860.2 230.9 859.8 230.55C859.4 230.2 802.35 238.25 802.35 237.45C802.35 236 833.7 223.85 832.75 223.25C832.5 223.1 832.25 222.55 832.25 222.05C832.25 220.95 901.35 226.65 898.8 225.4C896.5 224.2 824.6 216.75 823.75 217.75C823.35 218.25 822.25 218.5 820.5 218.5C818.75 218.5 817.65 218.75 817.25 219.25C816.9 219.65 816.2 220 815.7 220C815.25 220 814.45 220.35 814.05 220.8C813.6 221.25 812.6 221.75 811.85 221.95C810.25 222.4 809.8 224.15 810.9 225.4C811.35 225.85 811.85 226.85 812 227.65C812.5 229.5 813.55 229.4 817.6 227.2C820.35 225.75 821.25 225.5 822.7 225.75C825.2 226.2 827.1 227.45 826.2 228.05C825.8 228.3 824.8 228.5 823.95 228.5C823 228.5 822.25 228.8 822.05 229.25C821.9 229.65 821.3 230 820.7 230C819.4 230 856.45 235.85 856.8 236.75C890.211 237.256 811.55 237.5 802.35 237.45C796.1 237.45 762.3 237.55 791.75 237.15C794.25 236.2 756.15 237.75 754.3 236.05C752.7 234.6 787.6 230.1 783.95 232C782.35 232.8 780.8 233.5 780.5 233.5C780.25 233.5 801.5 236.352 800.3 237.452L775.6 237.5H388.5C175.6 237.5 1.25031 237.35 1.10031 237.15ZM843.35 207.55C844 207.45 845.75 204.1 845.75 202.95C822.3 266.05 776.3 221.55 775.6 220.8C774.55 219.75 842.75 199 841.05 199C839.7 199 845.15 203.1 844.75 203.55C844.4 203.95 835.75 229.9 836.4 200.5C839.5 204.2 834.45 201.8 835.65 204.2C836.2 205.3 836.8 206.6 836.9 207C837.05 207.55 837.85 207.75 840.05 207.65C841.7 207.6 843.15 207.55 843.35 207.55ZM238.3 189.3C238.4 182.25 238.2 45.3 238.1 45.15C237.85 44.95 210.15 44.9 209.95 45.15C209.85 45.25 209.75 59.25 209.75 76.25C209.75 93.25 209.55 107 209.35 106.8C209.15 106.6 209 106.25 208.95 106.1C208.95 105.9 208.65 105.15 208.35 104.4C207.65 102.65 206.6 96.95 206.95 96.6C207.1 96.45 207.05 96.1 206.75 95.8C206.2 95.1 205.05 88.95 205.05 86.65C205.05 85.75 204.9 85.15 204.65 85.3C204.45 85.45 204.25 84.55 204.25 83.3C204.25 82.05 204.05 81 203.75 81C203.5 81 203.25 79.95 203.25 78.7C203.25 77.45 203.05 76.05 202.8 75.55C202.55 75.1 202.2 73.8 202.1 72.7C201.95 71.65 201.6 69.85 201.35 68.75C200.8 66.8 200.15 62.3 200.05 60.15C200 59.6 199.85 59.2 199.7 59.3C199.55 59.4 199 57.3 198.55 54.6C198.05 51.95 197.45 48.7 197.15 47.4L196.65 45H181.45H166.25V118.5V192H180.75H195.25V173.4C195.3 128.9 195.35 122.3 195.55 122.75C196.1 124.2 202.7 158.65 202.5 159C202.35 159.25 202.4 159.5 202.65 159.6C203.25 159.85 204.8 168.35 204.4 169.3C204.2 169.8 204.3 170.05 204.55 169.85C204.85 169.7 205.3 171.1 205.7 173.15C206.05 175.15 206.55 177.55 206.75 178.5C207.75 182.35 208.75 188.6 208.5 189.05C208.3 189.3 208.45 189.5 208.7 189.5C209 189.5 209.25 190.05 209.25 190.75V192L223.15 192.1C230.75 192.2 237.3 192.15 237.65 192.05C238 191.95 238.25 190.9 238.3 189.3ZM327.75 132.55L327.7 73.5H336.45H345.2L345.35 59.85C345.45 52.4 345.35 45.9 345.15 45.5C344.85 44.8 332.15 44.7 282.75 45H280.5L280.6 58.85C280.65 66.5 280.75 72.9 280.75 73.1C280.75 73.3 284.65 73.55 289.4 73.6L298 73.75L298.05 75C298.1 75.7 298.15 102.3 298.15 134.1L298.25 192L312.65 192.1C320.55 192.2 327.2 192.1 327.4 191.95C327.65 191.75 327.8 165.05 327.75 132.55ZM414.3 189.1C414.6 185.05 414.5 45.55 414.2 45.3C414.1 45.2 407.7 45 400 44.9L386 44.75L385.85 118.35C385.75 186.65 385.8 191.95 386.6 192.1C387.05 192.2 393.4 192.2 400.75 192.1L414.15 191.95L414.3 189.1ZM496.85 141.75C496.7 105.45 496.8 91 497.2 91C497.5 91 497.8 91.3 497.8 91.65C497.85 91.95 497.95 92.7 498 93.25C498.1 94.15 500.2 106.85 502.05 117.75C504.25 130.8 504.75 134.1 504.45 134.6C504.3 134.8 504.4 135 504.65 135C504.9 135 505.25 136.05 505.4 137.4C505.55 138.7 505.95 141.2 506.25 143C506.55 144.8 507 147.6 507.25 149.25C507.5 150.9 508 154.3 508.45 156.75C508.85 159.25 509.55 163.4 510 166C510.45 168.6 511.1 172.55 511.5 174.75C511.9 176.95 512.25 179.4 512.25 180.2C512.25 181 512.45 182.35 512.7 183.2C512.95 184.05 513.45 186.35 513.8 188.25C514.1 190.2 514.55 191.85 514.75 192C515 192.15 521.1 192.15 528.3 192L541.5 191.75L542.15 187.75C542.45 185.55 543.2 180.85 543.8 177.25C544.35 173.7 544.9 169.95 545.05 169C545.15 168.05 545.5 166 545.75 164.5C546 163 546.45 159.95 546.75 157.75C547.05 155.55 547.55 152.75 547.75 151.5C548 150.25 548.45 147.35 548.75 145C549.05 142.65 549.5 139.75 549.75 138.5C550 137.25 550.45 134.45 550.75 132.25C551.05 130.05 551.55 127 551.85 125.5C552.15 124 552.45 122.2 552.5 121.5C552.65 120.1 554.25 109.55 555.75 100.05C556.7 93.85 556.95 93.05 557.6 93.7C557.8 93.9 558 116.1 558 143.05V192L571.5 192.15L585 192.25L584.85 118.75L584.7 45.25L583.1 45C581.9 44.8 541.3 44.8 539.7 44.95C539.55 45 539.15 46.85 538.85 49.1C538.5 51.4 538 54.7 537.75 56.5C537.45 58.3 536.35 66.4 535.25 74.5C534.15 82.6 533 90.6 532.75 92.25C532.5 93.9 531.35 102.35 530.2 111C529 119.65 527.9 126.85 527.65 126.9C527.45 127 527.35 127.3 527.55 127.55C527.7 127.8 527.6 128 527.3 128C527 128 526.65 127.5 526.55 126.9C526.2 125.3 524.85 115.05 524.3 110C524 107.65 523.55 104.25 523.3 102.4C523 100.55 522.55 97.3 522.3 95.15C522 93 521.55 89.8 521.3 88C520.85 85.25 519.1 72.15 518.05 64C517.2 57.25 515.3 45.4 515.05 45.15C514.75 44.85 470.8 44.9 470.3 45.2C470.15 45.3 470.05 78.4 470.15 118.7L470.25 192L483.4 192.15C490.6 192.2 496.6 192.3 496.75 192.4C496.9 192.45 496.9 169.65 496.85 141.75ZM766.25 191.65C766.4 191.55 766.55 176.65 766.6 158.6C766.7 140.55 766.75 125.6 766.75 125.4C766.75 124.9 771.75 125.5 773.6 126.3C776.8 127.55 776.95 128.45 777.1 146.25C777.2 155.05 777.25 168.95 777.25 177.15V192H791.9H806.5V161.6C806.45 130.7 806.25 127.05 804.45 122.75C803.55 120.55 800.15 117.2 798.05 116.45C795.75 115.6 795.75 114.8 798.05 113.7C802.6 111.55 806.35 105.45 807.55 98.25C808.3 93.85 808.6 73.95 807.95 71C807.85 70.3 807.35 68.05 806.95 66C805.45 58.3 804.25 55.65 800.6 51.65C798.15 49 795.95 47.6 791.85 46.2C788.7 45.1 788.1 45.05 764.1 44.95C750.55 44.9 738.75 44.9 737.9 44.95L736.25 45V118.65V192.25L751.1 192.1C759.3 192 766.1 191.8 766.25 191.65ZM879.4 189.35C879.55 187.4 879.45 46.35 879.3 45C879.25 44.85 872.9 44.8 865.15 44.8L851 44.85L850.75 118.3C850.6 158.7 850.65 191.85 850.85 192C851 192.15 857.45 192.2 865.15 192.1L879.15 191.95L879.4 189.35ZM970.75 167.8V143.6L972.5 136.15C973.5 132.1 974.4 128.4 974.6 128C974.75 127.6 974.85 126.85 974.8 126.4C974.75 125.9 974.95 125.5 975.25 125.5C975.55 125.5 975.7 125.3 975.5 125.05C975.2 124.5 978.35 111.35 978.85 111.1C979.05 111 979.1 110.65 978.95 110.3C978.8 109.95 979.05 108.65 979.45 107.45C979.9 106.25 980.25 104.75 980.25 104.15C980.25 103.5 980.45 103 980.7 103C980.95 103 981.15 102.35 981.15 101.55C981.1 100.8 981.3 99.85 981.55 99.45C981.75 99.05 982.1 97.75 982.3 96.5C982.5 95.25 982.9 93.35 983.2 92.25C983.5 91.15 984.2 88.25 984.75 85.75C985.3 83.3 986.2 79.55 986.75 77.5C987.35 75.45 988 72.75 988.25 71.5C988.75 68.95 990 63.6 990.75 61C991.75 57.4 994.25 46.6 994.25 45.8C994.25 45.35 994.1 44.95 993.9 44.95C993.65 44.9 987.1 44.85 979.3 44.8C965.5 44.75 965.1 44.75 964.75 45.75C964.1 47.3 964 47.95 958.75 81C957.9 86.35 957.05 91.1 956.9 91.5C956.75 91.9 956.2 89.8 955.7 86.75C954.9 81.6 953.3 71.55 952.2 64.9C951.95 63.3 951.5 60.6 951.25 58.9C950.6 55.2 949.8 50.05 949.4 47.15C949.25 45.85 948.85 45 948.3 44.9C946.95 44.55 919.8 44.8 919.45 45.15C919.1 45.45 919.5 47.55 921.55 56.25C921.9 57.9 922.6 60.5 923 62C923.45 63.5 924 65.65 924.25 66.75C925.4 72.2 928.2 83.85 928.75 85.75C929 86.6 929.3 87.8 929.45 88.5C929.75 89.75 932.3 100.3 936.25 116.5C937.45 121.3 938.45 125.7 938.5 126.25C938.6 126.8 938.8 127.65 939 128.15C939.2 128.65 939.4 129.65 939.5 130.4C939.55 131.15 939.85 132.4 940.2 133.2C940.5 133.95 940.75 134.85 940.7 135.2C940.65 135.5 940.75 136.1 940.9 136.5C942.6 140.6 942.75 143.45 942.75 167.6C942.75 180.95 942.85 191.95 942.95 192.05C943.05 192.15 949.35 192.2 956.95 192.1L970.75 191.95V167.8ZM1060.5 190.85C1060.45 186.65 1062 168.7 1062.45 168.4C1063.15 167.95 1079.25 167.95 1079.25 168.4C1079.25 168.6 1079.6 172.35 1080 176.75C1080.45 181.15 1080.9 186.4 1081.1 188.4L1081.4 192H1095.55C1104.3 192 1109.75 191.8 1109.75 191.5C1109.75 191.25 1109.5 188.85 1109.25 186.15C1108.95 183.45 1107.95 172.8 1107 162.5C1106.05 152.2 1105 141.4 1104.75 138.5C1104.45 135.6 1104.2 131.6 1104.1 129.65C1104.05 127.65 1103.85 126 1103.7 126C1103.55 126 1103.25 123.9 1103.05 121.3C1102.9 118.75 1102.65 115.75 1102.5 114.7C1102.15 111.45 1101.3 102.9 1100 89C1095.5 40.9 1096.05 45.15 1094.35 44.9C1093.35 44.7 1063.4 44.8 1046.2 45C1045.35 45 1045.35 44.85 1042.75 72.25C1042.1 79.35 1039.4 107.2 1038.75 114C1038.5 116.9 1037.8 124 1037.25 129.75C1036.7 135.55 1035.9 143.65 1035.5 147.75C1035.1 151.9 1034.2 161.1 1033.5 168.25C1031.55 188.55 1031.25 191.1 1030.95 191.55C1030.75 191.95 1057.95 192.45 1059.75 192.1C1060.2 192 1060.55 191.45 1060.5 190.85ZM74.3503 189.4C74.4003 187.95 74.4503 186.4 74.5003 186C74.6503 184.55 75.3503 174.2 75.4503 171.6C75.5503 169.95 75.8503 168.75 76.3003 168.45C76.7003 168.2 80.6003 168 85.0503 168.05L93.1003 168.1L93.9503 178.95C94.4503 184.9 94.9003 190.25 95.0503 190.9L95.2503 192H109.3H123.3L123.15 187.6C123.05 185.2 122.8 183 122.65 182.7C122.45 182.45 122.25 180.2 122.2 177.75C122.15 175.25 121.95 172.9 121.75 172.5C121.55 172.1 121.25 169.75 121.05 167.25C120.85 164.8 120.6 162.1 120.5 161.25C120.4 160.45 120.15 157.65 120.05 155.1C119.9 152.55 119.65 150.25 119.5 150C119.3 149.7 119.25 149 119.3 148.35C119.35 147.75 119.2 146.85 119 146.35C118.8 145.85 118.75 144.2 118.95 142.7C119.15 140.85 119.1 140.05 118.75 140.25C118.45 140.45 118.25 140 118.25 139.15C118.35 137.1 117.8 130.8 117.2 126.5C116.9 124.45 116.75 122.15 116.9 121.4C117 120.65 116.9 120.15 116.75 120.25C116.55 120.35 116.4 118.45 116.35 116C116.3 113.55 116 110.95 115.75 110.3C115.5 109.6 115.15 106.95 115.05 104.4C114.9 101.85 114.75 99.75 114.7 99.75C114.55 99.75 114.05 93.35 114 91C114 89.5 113.85 88.15 113.65 88C113.45 87.85 113.25 86.25 113.2 84.5C113.15 82.7 112.9 80.45 112.7 79.5C112.45 78.55 112.25 75.75 112.2 73.25C112.15 70.8 111.9 68.45 111.6 68.15C111.3 67.7 111.3 67.5 111.7 67.5C112 67.5 112.25 67.25 112.25 66.95C112.25 66.7 112.05 66.6 111.75 66.75C111.25 67.05 111.1 65.25 111.05 59.75C111.05 58.4 110.8 57.1 110.5 56.9C110.2 56.65 110.3 56.5 110.75 56.5C111.25 56.5 111.3 56.35 110.9 56.1C110.6 55.9 110.2 53.65 110 50.75C109.85 48 109.5 45.55 109.3 45.35C108.75 44.8 59.8003 44.9 58.8003 45.5C58.3003 45.8 58.2503 46 58.6503 46C58.9503 46 59.2503 46.35 59.2503 46.8C59.2503 47.2 59.1003 47.45 58.9003 47.35C58.6503 47.2 58.4503 49.55 58.4003 52.6C58.3503 55.6 58.2003 58.45 58.0003 58.9C57.8503 59.35 57.6003 61.5 57.4503 63.65C57.3503 65.8 57.1003 67.8 56.9503 68.1C56.7503 68.4 56.5503 70.45 56.4503 72.7C56.3503 74.95 56.1003 77.3 55.9503 78C55.6003 79.2 55.2503 83.9 55.3003 87.4C55.3003 88.3 55.1003 89.3 54.9003 89.65C54.7003 90 54.4503 92.15 54.4003 94.5C54.3003 96.85 54.0503 98.8 53.8003 98.9C53.5003 99 53.4003 100.3 53.6003 102.05C53.7503 103.65 53.7003 105 53.4503 105C53.2003 105 53.0003 106.05 52.9503 107.35C52.8003 113.35 52.2003 120.2 51.8003 120.7C51.5003 121 51.3003 122.15 51.3003 123.25C51.3503 124.35 51.2003 126.5 51.0503 128C50.9003 129.5 50.6503 132.85 50.5503 135.4C50.4003 137.95 50.1503 140.25 49.9503 140.55C49.8003 140.85 49.5503 142.5 49.4503 144.2C49.4003 145.85 49.1503 148.05 49.0003 149C48.8503 149.95 48.6503 152.95 48.5003 155.65C48.4003 158.3 48.1503 160.75 47.9503 161.1C47.7503 161.4 47.5503 163.4 47.5003 165.55C47.5003 167.95 47.2003 169.7 46.8003 170.2C46.2503 170.85 46.2503 171 46.8003 171C47.3003 171 47.3503 171.15 46.9503 171.4C46.6003 171.6 46.4003 172.85 46.4503 174.35C46.5003 175.75 46.4003 178.45 46.2003 180.35C45.9503 182.2 45.6503 185.6 45.4503 187.9L45.1503 192H59.7003H74.2503L74.3503 189.4ZM692.75 177.5V163H678.15C670.1 163 663.25 162.8 662.9 162.6C662.45 162.3 662.25 158 662.15 145.9L662 129.65L675.9 129.75L689.75 129.9L689.65 115.8L689.5 101.75L676.25 101.7C668.95 101.7 662.8 101.65 662.5 101.6C662.2 101.55 662 96.45 662 87.5V73.5H676.5H691V59.25C691 50.1 690.8 45 690.5 44.95C689.65 44.9 635.6 44.9 633.65 44.95L631.75 45V118.5V192H662.25H692.75V177.5ZM37.5003 129.5C38.1003 128.85 39.0503 128.5 40.2503 128.5L36.2003 124L42.1503 125.65C42.1503 124.1 41.8503 122.2 41.4503 121.4C41.0503 120.65 40.7503 119.6 40.7503 119.1C40.7503 118.55 40.3003 117.55 39.7503 116.85C39.2003 116.15 38.7503 115.1 38.7503 114.55C38.7503 113.95 38.4003 113.35 38.0003 113.2C37.5003 113 37.2503 112.2 37.2503 111C37.2503 109.95 13.4998 161.45 13.0998 161.1C12.6498 160.75 35.7503 107.05 35.7503 105.95C35.7503 104.4 32.1003 121 30.7003 119.9C29.4003 118.9 32.0503 101.55 30.7003 101.85C29.7503 102 42.3003 117.25 42.1503 117.5C41.9503 117.75 25.6503 114.4 24.6503 114.55V103.75H17.5C18.1 104.45 17.5 83.3 17.5 84C17.5 85.2 28.7503 113.2 29.8003 114.25C30.0503 114.5 30.2503 115.4 30.2503 116.3C30.2503 117.15 30.6003 118.15 31.0003 118.5C31.4003 118.85 31.7503 119.75 31.7503 120.5C31.7503 121.95 35.5503 130.5 36.2003 130.5C36.4003 130.5 37.0003 130.05 37.5003 129.5ZM38.0003 95C39.3003 94.4 31.5503 97.5 32.0003 96.85C32.7503 95.65 32.7003 95.45 31.3503 92.95L29.9003 90.25L26.9503 90.4C24.5003 90.55 23.8003 90.8 22.9003 91.9C21.1503 94.05 15.1115 83.5 17.5615 86C18.7115 87.2 34.85 77.6 35 77.5C35.15 77.4 36.7003 95.55 38.0003 95Z" fill="white"/>
</svg>
