<svg width="67" height="67" viewBox="0 0 67 67" fill="none" xmlns="http://www.w3.org/2000/svg">
<path fill-rule="evenodd" clip-rule="evenodd" d="M28.3844 0.38139C32.1901 -0.124101 36.5188 0.077001 40.4511 0.941954C47.0561 2.39492 53.9816 6.569 58.5131 11.8284C61.8852 15.7418 64.0967 19.9736 65.4796 25.1588C67.6621 33.3423 66.7282 41.491 62.7519 48.9578C60.8463 52.5365 58.7907 55.149 55.7696 57.8324C53.5525 59.8016 51.5027 61.2044 48.8745 62.5514C47.0933 63.4643 46.7365 63.5869 42.654 64.6885C39.6526 65.4986 37.9491 65.8861 37.1043 65.9507C27.956 66.651 20.0409 64.3085 13.2539 58.8926C8.53661 55.1283 4.63133 49.7624 2.3067 43.8506C1.16998 40.9595 0.276252 36.4084 0.17467 32.9937C-0.0549495 25.2678 2.65878 17.7153 7.8535 11.6233C10.9175 8.03023 15.119 4.92458 19.7028 2.86474C21.905 1.87522 26.0379 0.692952 28.3844 0.38139ZM19.0811 5.1869C11.047 9.27509 5.4024 16 2.9546 24.4002C2.17262 27.0836 1.80864 30.9929 2.01872 34.4528C2.14072 36.4637 2.23368 36.9604 3.09255 40.1887C3.91374 43.275 4.13793 43.9347 4.86243 45.3938C9.98323 55.7077 18.413 62.1983 28.8303 63.8484C40.3502 65.673 51.6692 61.246 58.5596 52.221C61.5857 48.2576 63.754 43.2653 64.513 38.5141C65.8226 30.3157 63.6117 21.2881 58.7255 14.8826C53.0285 7.41435 44.4129 2.65881 35.3943 2.00451C33.2495 1.84881 30.3422 1.92633 28.384 2.19114C27.686 2.28542 25.7999 2.74743 24.1927 3.21783C21.7022 3.94659 20.947 4.2374 19.0811 5.1869ZM27.7884 3.6384C30.044 3.37306 30.9104 3.30371 32.4112 3.26763C41.645 3.04574 50.9317 7.33116 56.9228 14.5783C60.0055 18.3074 62.2388 23.113 63.0869 27.8427C64.3031 34.6254 63.4532 40.6057 60.3832 46.8667C59.7784 48.0999 58.1868 50.6426 58.0472 50.5982C57.9901 50.5803 57.5928 49.0449 57.1642 47.1866C56.7354 45.3282 55.6599 41.0359 54.7742 37.648L53.1636 31.4886L50.3532 29.8205C48.8074 28.9032 47.5259 28.0897 47.5053 28.0128C47.4654 27.8639 45.3718 26.8811 45.1951 26.9283C45.1375 26.9436 44.9756 27.4322 44.8353 28.0141C43.8804 31.9752 41.425 38.4245 38.9557 43.4581C38.4247 44.5405 37.7911 45.8371 37.5475 46.3393C37.3039 46.8417 37.0652 47.2246 37.0167 47.1902C36.8385 47.0638 35.2081 44.6374 35.1462 44.4063C35.111 44.275 35.3408 43.714 35.6568 43.1595C37.7679 39.4567 40.9974 31.4242 42.172 26.9546L42.5153 25.6488L41.4869 24.8148C40.4117 23.9431 39.4076 22.5985 38.6542 21.0222C38.097 19.8563 37.2601 18.647 36.5758 18.0187C35.8659 17.3668 34.4961 16.7735 33.4884 16.6813C33.0379 16.64 32.646 16.5055 32.6125 16.3805C32.5792 16.2563 32.5615 15.6135 32.5731 14.9523L32.5945 13.7501L32.0556 13.2569C30.3663 11.7104 29.7415 10.4989 30.0525 9.37302C30.2431 8.68257 30.9494 8.02779 31.7284 7.81906C32.5323 7.60365 33.5797 8.22946 33.8016 9.0577C33.9295 9.53476 34.0368 9.64868 34.3965 9.68998C34.6379 9.71754 34.8965 9.7238 34.9711 9.70382C35.1783 9.6483 34.593 8.14743 34.1838 7.68484C33.2879 6.67166 31.5602 6.51553 30.3376 7.33724C29.618 7.82091 28.9359 9.18533 28.9433 10.1261C28.9511 11.1307 29.2845 11.7628 30.5197 13.1162L31.5794 14.2774L31.5993 15.4515L31.619 16.6256L30.9806 16.7966C29.0427 17.3159 27.8137 18.7419 26.9247 21.502C26.2562 23.5779 25.4565 24.9893 24.5423 25.7062C23.8349 26.2608 23.8185 26.1705 25.1685 29.1241C28.3022 35.9798 31.8404 42.201 35.5211 47.327C37.2741 49.7684 37.3881 50.1519 37.4193 53.7098C37.4334 55.3143 37.4632 57.9733 37.4858 59.6185C37.5082 61.2638 37.5039 62.6511 37.4762 62.7012C37.3717 62.89 32.4975 62.995 32.4478 62.8096C32.4414 62.7857 32.3675 60.0573 32.2837 56.7469L32.1315 50.7278L32.5951 50.1714C32.8502 49.8656 33.0242 49.4918 32.9817 49.3408C32.9393 49.1899 32.4624 48.4105 31.9219 47.6088C29.19 43.5569 26.0208 38.1172 24.4633 34.8066C23.4045 32.5561 21.8931 28.9896 21.7126 28.316C21.6325 28.017 21.5034 27.752 21.4257 27.7274C21.2378 27.6676 19.614 28.5099 19.282 28.8394C19.1379 28.9825 18.5639 29.3473 18.0065 29.6502C17.4492 29.9532 16.3751 30.5969 15.6197 31.0807C14.5408 31.7718 14.2107 32.0706 14.0802 32.4735C13.9154 32.9827 13.7513 33.8947 11.7308 45.5319C11.1534 48.8573 10.6372 51.6571 10.5837 51.7539C10.3598 52.1588 7.56524 48.0739 6.16976 45.3016C5.47229 43.9162 5.23882 43.2299 4.37187 40.018C3.2771 35.9619 3.08405 34.4548 3.22288 31.0435C3.31305 28.8261 4.1265 24.6921 4.85303 22.758C7.65317 15.3045 13.2972 9.30516 20.7624 5.84663C22.0434 5.25332 26.8185 3.75235 27.7884 3.6384ZM20.2172 9.93264C20.0021 10.2137 19.5363 10.7032 19.1822 11.0206C18.336 11.7788 17.6642 12.8162 17.5438 13.5503C17.4345 14.217 17.7405 16.386 17.9365 16.3335C18.0067 16.3146 18.2556 15.9626 18.4894 15.5511C19.2072 14.2888 19.148 14.8354 18.4222 16.1723C17.9964 16.9566 17.2964 17.8792 16.5579 18.6295C13.4538 21.7831 9.91422 26.5475 8.90663 28.9282C8.42133 30.0752 7.51866 32.9099 7.57352 33.1147C7.67992 33.5118 7.2339 32.962 6.58445 31.8956C6.20037 31.2651 5.84639 30.7605 5.79775 30.7745C5.74911 30.7886 5.6399 31.3368 5.55504 31.9925C5.36808 33.4352 5.68348 34.5517 6.46715 35.222C6.76926 35.4804 6.96545 35.7874 6.97517 36.0167C6.98382 36.2223 6.99834 37.1629 7.0075 38.107C7.02207 39.5987 7.09447 40.0528 7.55976 41.5732C7.94859 42.8436 8.22808 43.4924 8.58007 43.9419L9.0649 44.561L8.44903 42.4785C7.50126 39.2745 7.3795 35.964 8.19362 35.5397C8.81956 35.2134 9.58658 34.5527 9.76688 34.1845C9.92212 33.8675 9.87646 33.8519 9.10872 33.9596C8.65494 34.0234 8.24036 34.0497 8.18755 34.0178C8.05445 33.9377 8.51141 32.0727 9.01807 30.6285C9.41318 29.502 9.45772 29.4429 9.73205 29.6813C9.89308 29.8211 10.4343 30.0008 10.9347 30.0806C11.6839 30.2 12.0337 30.1605 12.9138 29.8575C14.0831 29.4549 14.5231 29.1319 15.7276 27.7906L16.528 26.8996L15.3561 26.6739C13.9642 26.406 12.6791 26.5731 11.7896 27.1375C10.8623 27.7262 10.9818 27.9479 12.1599 27.825L13.1767 27.719L12.0994 28.0314C11.5069 28.2032 10.717 28.5381 10.344 28.7755C9.54318 29.2853 9.54811 29.2399 10.4664 27.6514C12.1883 24.6731 14.8074 21.2646 17.209 18.8769C18.1821 17.9093 18.3421 17.8425 19.6801 17.8454C21.8332 17.85 22.6692 17.3498 23.8722 15.3367C24.3738 14.4971 24.9059 13.7697 25.0543 13.7203C25.2026 13.6707 24.8792 13.6409 24.3353 13.6539C23.2966 13.6787 22.1659 14.0416 21.5419 14.5502C21.339 14.7158 20.6078 15.412 19.9171 16.0976C19.2263 16.7831 18.6041 17.3593 18.5344 17.3779C18.3087 17.4384 18.7752 16.6478 19.5784 15.6083C20.5239 14.385 20.9116 13.2545 20.8258 11.9718C20.7906 11.446 20.7592 10.6485 20.7559 10.1998C20.7526 9.75116 20.718 9.39247 20.6792 9.40288C20.6402 9.41333 20.4324 9.65177 20.2172 9.93264ZM14.0003 15.1183C13.7251 16.0809 13.8213 16.8038 14.362 17.8349C14.6269 18.3401 14.9078 18.8159 14.9863 18.8921C15.0646 18.9685 15.2068 18.6692 15.3023 18.227C15.4421 17.5796 15.4808 17.5198 15.5012 17.92L15.5264 18.417L15.9124 17.9325C16.8545 16.7497 16.8946 15.7643 16.0622 14.2545C15.7665 13.7183 15.4775 13.1014 15.4201 12.8838C15.3228 12.5166 15.2742 12.5606 14.746 13.4947C14.4329 14.0483 14.0973 14.7789 14.0003 15.1183ZM10.6054 19.206C10.2981 20.1315 10.5009 21.0366 11.3045 22.327C11.8467 23.1976 11.8565 23.2039 11.9032 22.7183C11.9293 22.4468 11.9489 22.0156 11.9468 21.7601C11.943 21.3002 11.9453 21.301 12.1756 21.8354L12.4084 22.3754L12.8717 21.5092C13.624 20.1027 13.4997 19.0862 12.3421 17.1786L11.8661 16.3942L11.362 17.4199C11.0848 17.984 10.7442 18.7878 10.6054 19.206ZM43.5825 8.84086C43.6609 8.95183 43.7346 9.60967 43.746 10.3029C43.7788 12.2816 44.0477 13.0544 45.1186 14.2468C47.7692 17.1986 48.4655 17.921 50.4688 19.7968C51.6695 20.9209 52.6623 21.8804 52.6754 21.9291C52.6884 21.9777 52.277 21.9045 51.761 21.7663C48.0781 20.7802 46.9656 20.3083 49.5473 20.8273C50.9131 21.1019 50.9076 20.9557 49.521 20.1306C47.7131 19.0546 46.2253 19.133 43.9928 20.4218C42.734 21.1486 42.6701 21.2096 43.0683 21.3042C43.3035 21.3601 44.0261 21.7076 44.674 22.0761C46.6547 23.2031 47.9493 23.3138 51.2547 22.6393L53.1082 22.2611L53.7902 23.0505C55.0673 24.5286 56.9198 27.2038 57.4768 28.3745C58.0196 29.5152 58.624 31.4187 58.4577 31.4632C58.4117 31.4755 58.0516 31.4118 57.6572 31.3215C57.263 31.2312 56.9243 31.1865 56.9045 31.2223C56.7982 31.4146 58.1613 32.7828 58.5843 32.9082C59.0655 33.0508 59.0834 33.0829 59.2071 34.0236C59.5687 36.7726 59.5061 39.4162 59.0329 41.3981C58.7112 42.7446 58.809 42.7674 59.3292 41.4674C60.1509 39.4141 60.3207 37.2542 59.9371 33.7344C59.8621 33.0459 59.9047 32.8729 60.1783 32.7545C60.656 32.5477 61.1748 31.5148 61.1746 30.7712C61.1745 30.1617 60.7065 28.107 60.5758 28.1421C60.5414 28.1513 60.2112 28.7239 59.8418 29.4144L59.1703 30.6699L59.0257 30.1421C58.8242 29.4062 57.868 27.5027 56.993 26.0953C55.8515 24.2593 53.3815 21.4992 50.5915 18.9423C47.9025 16.4777 46.2703 14.7686 46.1685 14.3107C46.1347 14.1587 46.2628 14.2636 46.453 14.5439C46.922 15.2345 47.2123 15.0977 47.3001 14.1448C47.3911 13.1579 47.057 11.8114 46.5558 11.1446C45.8527 10.2093 42.9701 7.97611 43.5825 8.84086ZM7.64795 22.6925C7.05875 23.9828 6.9868 24.7592 7.33174 26.1085C7.52616 26.8687 8.21655 28.0593 8.42994 28.0021C8.5621 27.9667 8.75311 26.8678 8.80654 25.836L8.85633 24.8761L9.01181 25.824C9.19289 26.9276 9.35352 26.9718 9.72498 26.0202C10.3866 24.3242 10.1293 23.0933 8.5853 20.5722C8.49935 20.4315 8.41181 20.5517 8.32442 20.93C8.25209 21.2431 7.94777 22.0362 7.64795 22.6925ZM40.4227 13.8794C40.8034 14.3216 41.3879 15.075 41.7215 15.5536C42.6193 16.8418 43.5239 17.1235 46.5594 17.0603C46.9668 17.0518 47.3136 17.0207 47.33 16.9911C47.3463 16.9615 47.0984 16.7303 46.7792 16.4774C46.4598 16.2244 45.5587 15.4981 44.7764 14.8636C43.9943 14.2288 43.0365 13.5893 42.648 13.4423C42.0052 13.1993 40.3407 12.9552 39.9071 13.0405C39.8099 13.0597 40.0418 13.4373 40.4227 13.8794ZM48.7979 12.3667C48.7522 12.4263 48.6006 12.7767 48.461 13.1454C48.1355 14.0055 48.2116 14.8527 48.689 15.6815L49.0676 16.3388L49.142 15.8026C49.2136 15.2869 49.2278 15.3062 49.5074 16.307L49.7982 17.3478L50.274 16.3598C51.1397 14.5626 51.1015 13.9555 50.0008 12.0334L49.334 10.8688L49.1075 11.5635C48.983 11.9457 48.8436 12.3071 48.7979 12.3667ZM15.987 21.2745C15.6954 21.4986 15.4741 21.7464 15.4952 21.8252C15.5163 21.9039 15.9015 21.8788 16.351 21.7695C18.0741 21.3509 18.1916 21.5282 16.5599 22.0846C14.2092 22.8863 12.5204 23.9713 13.6739 23.9385C13.936 23.931 14.9404 23.9482 15.9058 23.9768C18.3502 24.0491 19.7653 23.7417 21.569 22.7466L22.9961 21.9592L21.8536 21.257C20.6561 20.521 20.0885 20.3222 18.9699 20.2467C18.1706 20.1927 16.7635 20.6775 15.987 21.2745ZM52.1873 14.692C52.041 15.0826 51.7633 15.7754 51.5701 16.2318C51.3769 16.6881 51.2401 17.3185 51.2662 17.6325C51.3159 18.2296 52.1921 19.8902 52.4247 19.8279C52.4951 19.809 52.5617 19.5394 52.5727 19.2289C52.5904 18.7304 52.6097 18.7655 52.737 19.5291C52.8539 20.2294 52.9258 20.382 53.1152 20.3313C53.5013 20.2278 54.2282 18.5711 54.2222 17.8084C54.2164 17.0824 53.7802 15.9483 53.1792 15.0969C53.0211 14.8728 52.8445 14.5135 52.7869 14.2984C52.6435 13.7633 52.4998 13.8575 52.1873 14.692ZM34.1391 22.5683C34.7522 22.9133 36.2361 23.6708 37.4365 24.2519C38.6371 24.8328 39.6816 25.3686 39.7576 25.4425C39.9997 25.6781 38.8023 28.7485 36.6773 33.3409C35.8606 35.1059 34.2589 38.1194 34.1172 38.1574C33.9619 38.1989 31.4939 34.6203 29.8595 31.9839C26.7776 27.0126 26.3116 26.2199 26.3883 26.0813C26.4317 26.0028 27.3025 25.4357 28.3234 24.8211C29.3443 24.2066 30.7749 23.3162 31.5028 22.8426C32.2306 22.3691 32.8707 21.9723 32.9252 21.9611C32.9797 21.9502 33.5259 22.2232 34.1391 22.5683ZM55.7036 19.534C54.9287 21.1637 54.9832 22.3414 55.891 23.5854L56.3395 24.2001L56.3731 23.2446L56.4066 22.289L56.7634 23.699C56.9597 24.4744 57.177 25.1431 57.2464 25.1848C57.5276 25.3541 58.0006 24.4812 58.2009 23.4229C58.4555 22.0768 58.2821 21.2811 57.3872 19.6912C57.043 19.0801 56.6982 18.3644 56.6207 18.1012L56.4798 17.6227L56.3237 18.0905C56.2378 18.3479 55.9587 18.9975 55.7036 19.534ZM19.7478 30.2682C19.9249 30.9291 21.477 34.5094 22.5695 36.7769C24.6723 41.1416 25.6519 42.8767 29.0122 48.1894C29.9768 49.7146 30.8235 51.1764 30.8935 51.4379C31.0823 52.1422 31.3723 62.5095 31.212 62.8211C31.1566 62.9289 27.4192 62.2983 26.0823 61.9557C23.8373 61.3804 21.4638 60.4181 18.9067 59.0463L17.9618 58.5393L17.9285 56.4163C17.91 55.2485 17.8786 52.9809 17.8585 51.3771C17.8112 47.5874 17.5107 43.3796 17.0505 40.0628C16.6823 37.4087 15.9497 33.3537 15.8243 33.2763C15.7475 33.2289 15.8453 33.903 16.3132 36.6462C16.8744 39.936 16.9973 42.0535 16.9816 48.17C16.9621 55.7486 16.9215 57.5657 16.7705 57.6062C16.5073 57.6767 12.9197 54.717 11.9102 53.5965C11.6414 53.2982 11.6966 52.8189 12.5223 48.2695C13.0213 45.52 13.7861 41.0837 14.2218 38.4113C14.6574 35.7389 15.0942 33.3864 15.1926 33.1834C15.4103 32.7344 15.5941 32.5953 17.7169 31.2724C19.4911 30.1668 19.6938 30.0665 19.7478 30.2682ZM49.7165 25.8457C49.9427 26.0453 50.4588 26.5311 50.8632 26.9249C52.2007 28.2271 53.6774 28.604 55.5255 28.1147C56.1897 27.9388 56.7408 27.7133 56.7715 27.6049C56.923 27.069 55.5378 26.4466 53.4963 26.133C52.737 26.0165 52.6455 25.9739 53.0876 25.9435C53.6241 25.9067 54.4399 25.9541 55.1712 26.065C55.4481 26.107 55.4598 26.0767 55.2526 25.8513C54.3269 24.8435 52.7037 24.5861 50.6654 25.1239L49.3053 25.4826L49.7165 25.8457ZM30.2555 31.7576C30.539 32.2579 30.6705 32.3422 31.1183 32.3111C31.4089 32.2908 32.8181 32.2471 34.25 32.2138L36.8532 32.1534L37.2057 31.516C37.3997 31.1654 37.5081 30.8483 37.4467 30.8114C37.3854 30.7745 35.7538 30.7845 33.821 30.8337C31.8882 30.8832 30.2265 30.9166 30.1282 30.908C29.855 30.8845 29.8888 31.111 30.2555 31.7576ZM49.7361 30.8786C52.1081 32.3025 52.1169 32.31 52.4738 33.1983C52.7982 34.0052 55.1383 43.5532 56.4958 49.608L57.0373 52.0233L56.0115 53.2024C55.4472 53.8511 54.431 54.8887 53.7532 55.5085L52.521 56.6354L52.4074 56.2115C52.345 55.9785 52.2459 54.9006 52.1872 53.8163C52.1284 52.7321 52.0518 51.3201 52.0165 50.6785C51.9815 50.037 51.8144 47.4723 51.6453 44.9795C51.3279 40.3004 51.2923 37.5501 51.5111 34.594C51.5807 33.6534 51.6026 32.8294 51.5597 32.763C51.4482 32.59 51.088 37.6821 50.9813 40.9426C50.8933 43.6293 50.9618 47.3094 51.2236 53.9563C51.2934 55.7298 51.2848 57.2922 51.2044 57.4284C50.9898 57.7919 48.6755 59.165 46.6162 60.1504C45.1832 60.8363 44.22 61.1718 41.8549 61.809C40.2243 62.2483 38.8355 62.5748 38.7687 62.5346C38.7019 62.4945 38.6158 60.2329 38.5774 57.5088C38.4651 49.5267 38.3277 50.5467 39.9088 47.6245C41.7042 44.3063 41.839 44.0232 43.279 40.5449C44.6092 37.3317 44.9265 36.4655 46.2784 32.3553C46.7659 30.873 47.2079 29.613 47.2606 29.5551C47.3131 29.4973 48.4272 30.0929 49.7361 30.8786ZM13.1495 48.9387C13.1875 49.0705 13.2753 48.7047 13.3442 48.1258C13.4134 47.5469 13.4532 47.0328 13.4327 46.9834C13.3582 46.8031 13.0826 48.7062 13.1495 48.9387ZM33.617 50.8848C33.1681 51.6401 33.5813 52.5999 34.4426 52.8021C35.4861 53.0472 36.243 52.2135 35.9545 51.1367C35.6643 50.0539 34.2046 49.8966 33.617 50.8848ZM34.8808 51.4627C34.9163 51.5952 34.8757 51.7223 34.7906 51.7451C34.7055 51.7679 34.6068 51.6781 34.5713 51.5457C34.5358 51.4132 34.5764 51.2862 34.6615 51.2633C34.7466 51.2405 34.8453 51.3303 34.8808 51.4627ZM33.7467 56.2335C33.5959 56.5063 33.5226 56.9166 33.5839 57.1454C33.7481 57.7583 34.5489 58.1776 35.215 57.9991C35.9208 57.81 36.2582 57.2221 36.068 56.5123C35.7593 55.3602 34.3247 55.188 33.7467 56.2335ZM35.0834 56.6705C35.0783 56.7736 35.008 56.8757 34.9272 56.8973C34.8464 56.919 34.7345 56.8657 34.6785 56.779C34.6226 56.6922 34.6928 56.5901 34.8347 56.5521C34.9766 56.5141 35.0884 56.5674 35.0834 56.6705ZM34.055 61.4186C33.7396 61.989 33.9115 62.1694 34.8137 62.2144C35.6802 62.2577 36.0622 62.0618 35.9473 61.6329C35.7051 60.7288 34.5112 60.5937 34.055 61.4186Z" fill="black"/>
</svg>
