<svg width="67" height="68" viewBox="0 0 67 68" fill="none" xmlns="http://www.w3.org/2000/svg">
<g clip-path="url(#clip0_18_4)">
<path fill-rule="evenodd" clip-rule="evenodd" d="M28.3844 0.881361C32.1901 0.37587 36.5188 0.576972 40.4511 1.44193C47.0561 2.89489 53.9816 7.06897 58.5131 12.3284C61.8852 16.2418 64.0967 20.4736 65.4796 25.6588C67.6621 33.8423 66.7282 41.991 62.7519 49.4578C60.8463 53.0365 58.7907 55.649 55.7696 58.3324C53.5525 60.3016 51.5027 61.7044 48.8745 63.0514C47.0933 63.9643 46.7365 64.0869 42.654 65.1885C39.6526 65.9986 37.9491 66.3861 37.1043 66.4507C27.956 67.151 20.0409 64.8085 13.2539 59.3926C8.53666 55.6283 4.63138 50.2624 2.30675 44.3506C1.17003 41.4595 0.276299 36.9084 0.174717 33.4937C-0.0549021 25.7678 2.65883 18.2153 7.85355 12.1233C10.9175 8.5302 15.119 5.42455 19.7028 3.36471C21.905 2.37519 26.0379 1.19292 28.3844 0.881361ZM19.0811 5.68687C11.047 9.77506 5.40245 16.5 2.95465 24.9002C2.17267 27.5836 1.80869 31.4929 2.01877 34.9528C2.14077 36.9637 2.23373 37.4604 3.0926 40.6887C3.91379 43.775 4.13798 44.4347 4.86248 45.8938C9.98328 56.2077 18.413 62.6983 28.8303 64.3484C40.3502 66.173 51.6692 61.746 58.5596 52.721C61.5857 48.7576 63.754 43.7653 64.513 39.0141C65.8226 30.8157 63.6117 21.7881 58.7255 15.3826C53.0285 7.91432 44.4129 3.15878 35.3943 2.50448C33.2495 2.34878 30.3422 2.4263 28.384 2.69111C27.686 2.78539 25.7999 3.2474 24.1927 3.7178C21.7022 4.44656 20.947 4.73737 19.0811 5.68687ZM27.7884 4.13837C30.044 3.87303 30.9104 3.80368 32.4112 3.7676C41.645 3.54571 50.9317 7.83113 56.9228 15.0783C60.0055 18.8074 62.2388 23.613 63.0869 28.3427C64.3031 35.1254 63.4532 41.1057 60.3832 47.3667C59.7784 48.5999 58.1868 51.1426 58.0472 51.0982C57.9901 51.0803 57.5928 49.5449 57.1642 47.6866C56.7354 45.8282 55.6599 41.5359 54.7742 38.148L53.1636 31.9886L50.3532 30.3205C48.8074 29.4032 47.5259 28.5897 47.5053 28.5128C47.4654 28.3639 45.3718 27.3811 45.1951 27.4283C45.1375 27.4436 44.9756 27.9322 44.8353 28.5141C43.8804 32.4752 41.425 38.9245 38.9557 43.9581C38.4247 45.0405 37.7911 46.3371 37.5475 46.8393C37.3039 47.3417 37.0652 47.7246 37.0167 47.6902C36.8385 47.5638 35.2081 45.1374 35.1462 44.9063C35.111 44.775 35.3408 44.214 35.6568 43.6595C37.7679 39.9567 40.9974 31.9242 42.172 27.4546L42.5153 26.1488L41.4869 25.3148C40.4117 24.4431 39.4076 23.0985 38.6542 21.5222C38.097 20.3563 37.2601 19.147 36.5758 18.5187C35.8659 17.8668 34.4961 17.2735 33.4884 17.1813C33.0379 17.14 32.646 17.0055 32.6125 16.8805C32.5792 16.7563 32.5615 16.1135 32.5731 15.4523L32.5945 14.2501L32.0556 13.7569C30.3663 12.2104 29.7415 10.9989 30.0525 9.87299C30.2431 9.18254 30.9494 8.52776 31.7284 8.31903C32.5323 8.10362 33.5797 8.72943 33.8016 9.55767C33.9295 10.0347 34.0368 10.1487 34.3965 10.19C34.6379 10.2175 34.8965 10.2238 34.9711 10.2038C35.1783 10.1483 34.593 8.6474 34.1838 8.18481C33.2879 7.17163 31.5602 7.0155 30.3376 7.83721C29.618 8.32088 28.9359 9.6853 28.9433 10.6261C28.9511 11.6307 29.2845 12.2628 30.5197 13.6162L31.5794 14.7774L31.5993 15.9515L31.619 17.1256L30.9806 17.2966C29.0427 17.8159 27.8137 19.2419 26.9247 22.002C26.2562 24.0779 25.4565 25.4893 24.5423 26.2062C23.8349 26.7608 23.8185 26.6705 25.1685 29.6241C28.3022 36.4798 31.8404 42.701 35.5211 47.827C37.2741 50.2684 37.3881 50.6519 37.4193 54.2098C37.4334 55.8143 37.4632 58.4733 37.4858 60.1185C37.5082 61.7638 37.5039 63.1511 37.4762 63.2012C37.3717 63.39 32.4975 63.495 32.4478 63.3096C32.4414 63.2857 32.3675 60.5573 32.2837 57.2469L32.1315 51.2278L32.5951 50.6714C32.8502 50.3656 33.0242 49.9918 32.9817 49.8408C32.9393 49.6899 32.4624 48.9105 31.9219 48.1088C29.19 44.0569 26.0208 38.6172 24.4633 35.3066C23.4045 33.0561 21.8931 29.4896 21.7126 28.816C21.6325 28.517 21.5034 28.252 21.4257 28.2274C21.2378 28.1676 19.614 29.0099 19.282 29.3394C19.1379 29.4825 18.5639 29.8473 18.0065 30.1502C17.4492 30.4532 16.3751 31.0969 15.6197 31.5807C14.5408 32.2718 14.2107 32.5706 14.0802 32.9735C13.9154 33.4827 13.7513 34.3947 11.7308 46.0319C11.1534 49.3573 10.6372 52.1571 10.5837 52.2539C10.3598 52.6588 7.56529 48.5739 6.16981 45.8016C5.47234 44.4162 5.23887 43.7299 4.37192 40.518C3.27715 36.4619 3.0841 34.9548 3.22293 31.5435C3.3131 29.3261 4.12655 25.1921 4.85308 23.258C7.65322 15.8045 13.2972 9.80513 20.7624 6.3466C22.0434 5.75329 26.8185 4.25232 27.7884 4.13837ZM20.2172 10.4326C20.0021 10.7137 19.5363 11.2032 19.1822 11.5206C18.336 12.2788 17.6642 13.3162 17.5438 14.0503C17.4345 14.717 17.7405 16.886 17.9365 16.8335C18.0067 16.8146 18.2556 16.4626 18.4894 16.0511C19.2072 14.7888 19.148 15.3354 18.4222 16.6723C17.9964 17.4566 17.2964 18.3792 16.5579 19.1295C13.4538 22.2831 9.91427 27.0475 8.90668 29.4282C8.42138 30.5752 7.51871 33.4099 7.57357 33.6147C7.67997 34.0118 7.23395 33.462 6.5845 32.3956C6.20042 31.7651 5.84644 31.2605 5.7978 31.2745C5.74916 31.2886 5.63995 31.8368 5.55509 32.4925C5.36813 33.9352 5.68353 35.0517 6.4672 35.722C6.76931 35.9804 6.9655 36.2874 6.97522 36.5167C6.98387 36.7223 6.99839 37.6629 7.00755 38.607C7.02212 40.0987 7.09452 40.5528 7.55981 42.0732C7.94864 43.3436 8.22813 43.9924 8.58012 44.4419L9.06495 45.061L8.44908 42.9785C7.50131 39.7745 7.37955 36.464 8.19367 36.0397C8.81961 35.7134 9.58663 35.0527 9.76693 34.6845C9.92217 34.3675 9.87651 34.3519 9.10877 34.4596C8.65499 34.5234 8.24041 34.5497 8.1876 34.5178C8.0545 34.4377 8.51146 32.5727 9.01812 31.1285C9.41323 30.002 9.45777 29.9429 9.7321 30.1813C9.89313 30.3211 10.4343 30.5008 10.9347 30.5806C11.6839 30.7 12.0337 30.6605 12.9138 30.3575C14.0831 29.9549 14.5231 29.6319 15.7276 28.2906L16.528 27.3996L15.3561 27.1739C13.9642 26.906 12.6791 27.0731 11.7896 27.6375C10.8623 28.2262 10.9818 28.4479 12.1599 28.325L13.1767 28.219L12.0994 28.5314C11.5069 28.7032 10.717 29.0381 10.344 29.2755C9.54323 29.7853 9.54816 29.7399 10.4664 28.1514C12.1883 25.1731 14.8074 21.7646 17.209 19.3769C18.1821 18.4093 18.3421 18.3425 19.6801 18.3454C21.8332 18.35 22.6692 17.8498 23.8722 15.8367C24.3738 14.9971 24.9059 14.2697 25.0543 14.2203C25.2026 14.1707 24.8792 14.1409 24.3353 14.1539C23.2966 14.1787 22.1659 14.5416 21.5419 15.0502C21.339 15.2158 20.6078 15.912 19.9171 16.5976C19.2263 17.2831 18.6041 17.8593 18.5344 17.8779C18.3087 17.9384 18.7752 17.1478 19.5784 16.1083C20.5239 14.885 20.9116 13.7545 20.8258 12.4718C20.7906 11.946 20.7592 11.1485 20.7559 10.6998C20.7526 10.2511 20.718 9.89244 20.6792 9.90285C20.6402 9.9133 20.4324 10.1517 20.2172 10.4326ZM14.0003 15.6183C13.7251 16.5809 13.8213 17.3038 14.362 18.3349C14.6269 18.8401 14.9078 19.3159 14.9863 19.3921C15.0646 19.4685 15.2068 19.1692 15.3023 18.727C15.4421 18.0796 15.4808 18.0198 15.5012 18.42L15.5264 18.917L15.9124 18.4325C16.8545 17.2497 16.8946 16.2643 16.0622 14.7545C15.7665 14.2183 15.4775 13.6014 15.4201 13.3838C15.3228 13.0166 15.2742 13.0606 14.746 13.9947C14.4329 14.5483 14.0973 15.2789 14.0003 15.6183ZM10.6054 19.706C10.2981 20.6315 10.5009 21.5366 11.3045 22.827C11.8467 23.6976 11.8565 23.7039 11.9032 23.2183C11.9293 22.9468 11.9489 22.5156 11.9468 22.2601C11.943 21.8002 11.9453 21.801 12.1756 22.3354L12.4084 22.8754L12.8717 22.0092C13.624 20.6027 13.4997 19.5862 12.3421 17.6786L11.8661 16.8942L11.362 17.9199C11.0848 18.484 10.7442 19.2878 10.6054 19.706ZM43.5825 9.34083C43.6609 9.4518 43.7346 10.1096 43.746 10.8029C43.7788 12.7816 44.0477 13.5544 45.1186 14.7468C47.7692 17.6986 48.4655 18.421 50.4688 20.2968C51.6695 21.4209 52.6623 22.3804 52.6754 22.4291C52.6884 22.4777 52.277 22.4045 51.761 22.2663C48.0781 21.2802 46.9656 20.8083 49.5473 21.3273C50.9131 21.6019 50.9076 21.4557 49.521 20.6306C47.7131 19.5546 46.2253 19.633 43.9928 20.9218C42.734 21.6486 42.6701 21.7096 43.0683 21.8042C43.3035 21.8601 44.0261 22.2076 44.674 22.5761C46.6547 23.7031 47.9493 23.8138 51.2547 23.1393L53.1082 22.7611L53.7902 23.5505C55.0673 25.0286 56.9198 27.7038 57.4768 28.8745C58.0196 30.0152 58.624 31.9187 58.4577 31.9632C58.4117 31.9755 58.0516 31.9118 57.6572 31.8215C57.263 31.7312 56.9243 31.6865 56.9045 31.7223C56.7982 31.9146 58.1613 33.2828 58.5843 33.4082C59.0655 33.5508 59.0834 33.5829 59.2071 34.5236C59.5687 37.2726 59.5061 39.9162 59.0329 41.8981C58.7112 43.2446 58.809 43.2674 59.3292 41.9674C60.1509 39.9141 60.3207 37.7542 59.9371 34.2344C59.8621 33.5459 59.9047 33.3729 60.1783 33.2545C60.656 33.0477 61.1748 32.0148 61.1746 31.2712C61.1745 30.6617 60.7065 28.607 60.5758 28.6421C60.5414 28.6513 60.2112 29.2239 59.8418 29.9144L59.1703 31.1699L59.0257 30.6421C58.8242 29.9062 57.868 28.0027 56.993 26.5953C55.8515 24.7593 53.3815 21.9992 50.5915 19.4423C47.9025 16.9777 46.2703 15.2686 46.1685 14.8107C46.1347 14.6587 46.2628 14.7636 46.453 15.0439C46.922 15.7345 47.2123 15.5977 47.3001 14.6448C47.3911 13.6579 47.057 12.3114 46.5558 11.6446C45.8527 10.7093 42.9701 8.47608 43.5825 9.34083ZM7.648 23.1925C7.0588 24.4828 6.98685 25.2592 7.33179 26.6085C7.52621 27.3687 8.2166 28.5593 8.42999 28.5021C8.56215 28.4667 8.75316 27.3678 8.80659 26.336L8.85638 25.3761L9.01186 26.324C9.19294 27.4276 9.35357 27.4718 9.72503 26.5202C10.3866 24.8242 10.1293 23.5933 8.58535 21.0722C8.4994 20.9315 8.41186 21.0517 8.32447 21.43C8.25214 21.7431 7.94782 22.5362 7.648 23.1925ZM40.4227 14.3794C40.8034 14.8216 41.3879 15.575 41.7215 16.0536C42.6193 17.3418 43.5239 17.6235 46.5594 17.5603C46.9668 17.5518 47.3136 17.5207 47.33 17.4911C47.3463 17.4615 47.0984 17.2303 46.7792 16.9774C46.4598 16.7244 45.5587 15.9981 44.7764 15.3636C43.9943 14.7288 43.0365 14.0893 42.648 13.9423C42.0052 13.6993 40.3407 13.4552 39.9071 13.5405C39.8099 13.5597 40.0418 13.9373 40.4227 14.3794ZM48.7979 12.8667C48.7522 12.9263 48.6006 13.2767 48.461 13.6454C48.1355 14.5055 48.2116 15.3527 48.689 16.1815L49.0676 16.8388L49.142 16.3026C49.2136 15.7869 49.2278 15.8062 49.5074 16.807L49.7982 17.8478L50.274 16.8598C51.1397 15.0626 51.1015 14.4555 50.0008 12.5334L49.334 11.3688L49.1075 12.0635C48.983 12.4457 48.8436 12.8071 48.7979 12.8667ZM15.987 21.7745C15.6954 21.9986 15.4741 22.2464 15.4952 22.3252C15.5163 22.4039 15.9015 22.3788 16.351 22.2695C18.0741 21.8509 18.1916 22.0282 16.5599 22.5846C14.2092 23.3863 12.5204 24.4713 13.6739 24.4385C13.936 24.431 14.9404 24.4482 15.9058 24.4768C18.3502 24.5491 19.7653 24.2417 21.569 23.2466L22.9961 22.4592L21.8536 21.757C20.6561 21.021 20.0885 20.8222 18.9699 20.7467C18.1706 20.6927 16.7635 21.1775 15.987 21.7745ZM52.1873 15.192C52.041 15.5826 51.7633 16.2754 51.5701 16.7318C51.3769 17.1881 51.2401 17.8185 51.2662 18.1325C51.3159 18.7296 52.1921 20.3902 52.4247 20.3279C52.4951 20.309 52.5617 20.0394 52.5727 19.7289C52.5904 19.2304 52.6097 19.2655 52.737 20.0291C52.8539 20.7294 52.9258 20.882 53.1152 20.8313C53.5013 20.7278 54.2282 19.0711 54.2222 18.3084C54.2164 17.5824 53.7802 16.4483 53.1792 15.5969C53.0211 15.3728 52.8445 15.0135 52.7869 14.7984C52.6435 14.2633 52.4998 14.3575 52.1873 15.192ZM34.1391 23.0683C34.7522 23.4133 36.2361 24.1708 37.4365 24.7519C38.6371 25.3328 39.6816 25.8686 39.7576 25.9425C39.9997 26.1781 38.8023 29.2485 36.6773 33.8409C35.8606 35.6059 34.2589 38.6194 34.1172 38.6574C33.9619 38.6989 31.4939 35.1203 29.8595 32.4839C26.7776 27.5126 26.3116 26.7199 26.3883 26.5813C26.4317 26.5028 27.3025 25.9357 28.3234 25.3211C29.3443 24.7066 30.7749 23.8162 31.5028 23.3426C32.2306 22.8691 32.8707 22.4723 32.9252 22.4611C32.9797 22.4502 33.5259 22.7232 34.1391 23.0683ZM55.7036 20.034C54.9287 21.6637 54.9832 22.8414 55.891 24.0854L56.3395 24.7001L56.3731 23.7446L56.4066 22.789L56.7634 24.199C56.9597 24.9744 57.177 25.6431 57.2464 25.6848C57.5276 25.8541 58.0006 24.9812 58.2009 23.9229C58.4555 22.5768 58.2821 21.7811 57.3872 20.1912C57.043 19.5801 56.6982 18.8644 56.6207 18.6012L56.4798 18.1227L56.3237 18.5905C56.2378 18.8479 55.9587 19.4975 55.7036 20.034ZM19.7478 30.7682C19.9249 31.4291 21.477 35.0094 22.5695 37.2769C24.6723 41.6416 25.6519 43.3767 29.0122 48.6894C29.9768 50.2146 30.8235 51.6764 30.8935 51.9379C31.0823 52.6422 31.3723 63.0095 31.212 63.3211C31.1566 63.4289 27.4192 62.7983 26.0823 62.4557C23.8373 61.8804 21.4638 60.9181 18.9067 59.5463L17.9618 59.0393L17.9285 56.9163C17.91 55.7485 17.8786 53.4809 17.8585 51.8771C17.8112 48.0874 17.5107 43.8796 17.0505 40.5628C16.6823 37.9087 15.9497 33.8537 15.8243 33.7763C15.7475 33.7289 15.8453 34.403 16.3132 37.1462C16.8744 40.436 16.9973 42.5535 16.9816 48.67C16.9621 56.2486 16.9215 58.0657 16.7705 58.1062C16.5073 58.1767 12.9197 55.217 11.9102 54.0965C11.6414 53.7982 11.6966 53.3189 12.5223 48.7695C13.0213 46.02 13.7861 41.5837 14.2218 38.9113C14.6574 36.2389 15.0942 33.8864 15.1926 33.6834C15.4103 33.2344 15.5941 33.0953 17.7169 31.7724C19.4911 30.6668 19.6938 30.5665 19.7478 30.7682ZM49.7165 26.3457C49.9427 26.5453 50.4588 27.0311 50.8632 27.4249C52.2007 28.7271 53.6774 29.104 55.5255 28.6147C56.1897 28.4388 56.7408 28.2133 56.7715 28.1049C56.923 27.569 55.5378 26.9466 53.4963 26.633C52.737 26.5165 52.6455 26.4739 53.0876 26.4435C53.6241 26.4067 54.4399 26.4541 55.1712 26.565C55.4481 26.607 55.4598 26.5767 55.2526 26.3513C54.3269 25.3435 52.7037 25.0861 50.6654 25.6239L49.3053 25.9826L49.7165 26.3457ZM30.2555 32.2576C30.539 32.7579 30.6705 32.8422 31.1183 32.8111C31.4089 32.7908 32.8181 32.7471 34.25 32.7138L36.8532 32.6534L37.2057 32.016C37.3997 31.6654 37.5081 31.3483 37.4467 31.3114C37.3854 31.2745 35.7538 31.2845 33.821 31.3337C31.8882 31.3832 30.2265 31.4166 30.1282 31.408C29.855 31.3845 29.8888 31.611 30.2555 32.2576ZM49.7361 31.3786C52.1081 32.8025 52.1169 32.81 52.4738 33.6983C52.7982 34.5052 55.1383 44.0532 56.4958 50.108L57.0373 52.5233L56.0115 53.7024C55.4472 54.3511 54.431 55.3887 53.7532 56.0085L52.521 57.1354L52.4074 56.7115C52.345 56.4785 52.2459 55.4006 52.1872 54.3163C52.1284 53.2321 52.0518 51.8201 52.0165 51.1785C51.9815 50.537 51.8144 47.9723 51.6453 45.4795C51.3279 40.8004 51.2923 38.0501 51.5111 35.094C51.5807 34.1534 51.6026 33.3294 51.5597 33.263C51.4482 33.09 51.088 38.1821 50.9813 41.4426C50.8933 44.1293 50.9618 47.8094 51.2236 54.4563C51.2934 56.2298 51.2848 57.7922 51.2044 57.9284C50.9898 58.2919 48.6755 59.665 46.6162 60.6504C45.1832 61.3363 44.22 61.6718 41.8549 62.309C40.2243 62.7483 38.8355 63.0748 38.7687 63.0346C38.7019 62.9945 38.6158 60.7329 38.5774 58.0088C38.4651 50.0267 38.3277 51.0467 39.9088 48.1245C41.7042 44.8063 41.839 44.5232 43.279 41.0449C44.6092 37.8317 44.9265 36.9655 46.2784 32.8553C46.7659 31.373 47.2079 30.113 47.2606 30.0551C47.3131 29.9973 48.4272 30.5929 49.7361 31.3786ZM13.1495 49.4387C13.1875 49.5705 13.2753 49.2047 13.3442 48.6258C13.4134 48.0469 13.4532 47.5328 13.4327 47.4834C13.3582 47.3031 13.0826 49.2062 13.1495 49.4387ZM33.617 51.3848C33.1681 52.1401 33.5813 53.0999 34.4426 53.3021C35.4861 53.5472 36.243 52.7135 35.9545 51.6367C35.6643 50.5539 34.2046 50.3966 33.617 51.3848ZM34.8808 51.9627C34.9163 52.0952 34.8757 52.2223 34.7906 52.2451C34.7055 52.2679 34.6068 52.1781 34.5713 52.0457C34.5358 51.9132 34.5764 51.7862 34.6615 51.7633C34.7466 51.7405 34.8453 51.8303 34.8808 51.9627ZM33.7467 56.7335C33.5959 57.0063 33.5226 57.4166 33.5839 57.6454C33.7481 58.2583 34.5489 58.6776 35.215 58.4991C35.9208 58.31 36.2582 57.7221 36.068 57.0123C35.7593 55.8602 34.3247 55.688 33.7467 56.7335ZM35.0834 57.1705C35.0783 57.2736 35.008 57.3757 34.9272 57.3973C34.8464 57.419 34.7345 57.3657 34.6785 57.279C34.6226 57.1922 34.6928 57.0901 34.8347 57.0521C34.9766 57.0141 35.0884 57.0674 35.0834 57.1705ZM34.055 61.9186C33.7396 62.489 33.9115 62.6694 34.8137 62.7144C35.6802 62.7577 36.0622 62.5618 35.9473 62.1329C35.7051 61.2288 34.5112 61.0937 34.055 61.9186Z" fill="white"/>
</g>
<defs>
<clipPath id="clip0_18_4">
<rect width="67" height="67" fill="white" transform="translate(0 0.5)"/>
</clipPath>
</defs>
</svg>
